<svg width="840" height="688" viewBox="0 0 840 688" fill="none" xmlns="http://www.w3.org/2000/svg">
<path d="M510.527 46.0074C482.011 9.54483 433.408 7.18168 390.803 28.8052C354.196 47.3844 316.48 65.0056 281.055 85.2126C235.209 111.364 193.355 148.828 155.867 183.025C81.9936 250.413 15 341.828 15 436.259C15 531.598 90.4385 632.259 204.089 658.888C324.527 687.107 457.636 671.466 569.439 625.684C622.046 604.142 680.259 565.965 720.046 529.671C765.303 488.387 804.485 429.244 815.778 373.65C836.517 271.557 827.98 169.536 730.26 97.0141C682.695 61.7141 615.679 44.0797 555.187 31.8056C490.314 18.6429 434.121 14.3856 369.423 28.0051" stroke="url(#paint0_linear_3_43)" stroke-width="30" stroke-linecap="round"/>
<defs>
<linearGradient id="paint0_linear_3_43" x1="420" y1="15" x2="420" y2="673" gradientUnits="userSpaceOnUse">
<stop stop-color="#73C0FE"/>
<stop offset="1" stop-color="#B84CFF"/>
</linearGradient>
</defs>
</svg>
