<svg width="105" height="81" viewBox="0 0 105 81" fill="none" xmlns="http://www.w3.org/2000/svg">
<path d="M88.8433 6.65042C82.1931 3.55033 74.9929 1.30027 67.4927 0.000229997C67.4269 -0.00187308 67.3615 0.0104677 67.301 0.0363848C67.2405 0.0623019 67.1865 0.101166 67.1427 0.150235C66.2426 1.80028 65.1926 3.95034 64.4926 5.60039C56.5374 4.40035 48.4472 4.40035 40.4919 5.60039C39.7919 3.90034 38.7419 1.80028 37.7919 0.150235C37.7419 0.0502324 37.5919 0.000229997 37.4418 0.000229997C29.9416 1.30027 22.7914 3.55033 16.0913 6.65042C16.0413 6.65042 15.9913 6.70042 15.9413 6.75042C2.34089 27.101 -1.40922 46.9015 0.440833 66.5021C0.440833 66.6021 0.490834 66.7021 0.590837 66.7521C9.59108 73.3523 18.2413 77.3524 26.7916 80.0025C26.9416 80.0525 27.0916 80.0025 27.1416 79.9025C29.1416 77.1524 30.9417 74.2523 32.4917 71.2022C32.5917 71.0022 32.4917 70.8022 32.2917 70.7522C29.4416 69.6522 26.7416 68.3521 24.0915 66.8521C23.8915 66.7521 23.8915 66.4521 24.0415 66.3021C24.5915 65.9021 25.1415 65.4521 25.6915 65.052C25.7915 64.952 25.9415 64.952 26.0415 65.002C43.242 72.8523 61.7925 72.8523 78.793 65.002C78.893 64.952 79.043 64.952 79.143 65.052C79.693 65.5021 80.243 65.9021 80.793 66.3521C80.993 66.5021 80.993 66.8021 80.743 66.9021C78.143 68.4521 75.3929 69.7022 72.5428 70.8022C72.3428 70.8522 72.2928 71.1022 72.3428 71.2522C73.9429 74.3023 75.7429 77.2024 77.693 79.9525C77.843 80.0025 77.993 80.0525 78.143 80.0025C86.7432 77.3524 95.3934 73.3523 104.394 66.7521C104.494 66.7021 104.544 66.6021 104.544 66.5021C106.744 43.8514 100.894 24.2009 89.0433 6.75042C88.9933 6.70042 88.9433 6.65042 88.8433 6.65042ZM35.0918 54.5518C29.9416 54.5518 25.6415 49.8016 25.6415 43.9515C25.6415 38.1013 29.8416 33.3512 35.0918 33.3512C40.3919 33.3512 44.592 38.1513 44.542 43.9515C44.542 49.8016 40.3419 54.5518 35.0918 54.5518ZM69.9427 54.5518C64.7926 54.5518 60.4925 49.8016 60.4925 43.9515C60.4925 38.1013 64.6926 33.3512 69.9427 33.3512C75.2429 33.3512 79.443 38.1513 79.393 43.9515C79.393 49.8016 75.2429 54.5518 69.9427 54.5518Z" fill="url(#paint0_linear_3_21)"/>
<defs>
<linearGradient id="paint0_linear_3_21" x1="52.5" y1="0" x2="52.5" y2="80.0232" gradientUnits="userSpaceOnUse">
<stop stop-color="#B84CFF"/>
<stop offset="1" stop-color="#73C0FE"/>
</linearGradient>
</defs>
</svg>
