<svg width="105" height="105" viewBox="0 0 105 105" fill="none" xmlns="http://www.w3.org/2000/svg">
<path d="M57.8971 0C63.803 0.0157492 66.8006 0.0472476 69.3887 0.120744L70.4072 0.157492C71.5831 0.19949 72.7433 0.251987 74.145 0.314984C79.7307 0.57747 83.542 1.45943 86.8861 2.75611C90.3509 4.08954 93.2698 5.89545 96.1886 8.80905C98.8581 11.4334 100.924 14.6078 102.242 18.1116C103.538 21.4556 104.42 25.267 104.683 30.8579C104.746 32.2543 104.798 33.4145 104.84 34.5957L104.872 35.6142C104.95 38.197 104.982 41.1946 104.992 47.1006L104.998 51.0169V57.894C105.011 61.7232 104.97 65.5524 104.877 69.3804L104.845 70.3989C104.803 71.5801 104.751 72.7403 104.688 74.1367C104.425 79.7277 103.533 83.5337 102.242 86.883C100.927 90.3887 98.8614 93.5639 96.1886 96.1856C93.5635 98.8541 90.3893 100.92 86.8861 102.239C83.542 103.535 79.7307 104.417 74.145 104.68C72.8993 104.738 71.6534 104.791 70.4072 104.837L69.3887 104.869C66.8006 104.942 63.803 104.979 57.8971 104.989L53.9808 104.995H47.1089C43.2779 105.008 39.447 104.968 35.6172 104.874L34.5988 104.842C33.3525 104.795 32.1066 104.741 30.8609 104.68C25.2752 104.417 21.4639 103.535 18.1146 102.239C14.6113 100.923 11.4381 98.8569 8.81733 96.1856C6.14545 93.5622 4.078 90.3876 2.75914 86.883C1.46245 83.539 0.580499 79.7277 0.318013 74.1367C0.259524 72.891 0.207027 71.6451 0.160521 70.3989L0.134273 69.3804C0.0375311 65.5524 -0.00622137 61.7233 0.0030291 57.894V47.1006C-0.0116227 43.2714 0.0268794 39.4423 0.118524 35.6142L0.155272 34.5957C0.197269 33.4145 0.249767 32.2543 0.312763 30.8579C0.57525 25.267 1.4572 21.4609 2.75389 18.1116C4.07217 14.6042 6.14375 11.4288 8.82258 8.80905C11.4427 6.13942 14.6138 4.07372 18.1146 2.75611C21.4639 1.45943 25.27 0.57747 30.8609 0.314984C32.2574 0.251987 33.4228 0.19949 34.5988 0.157492L35.6172 0.125993C39.4453 0.03272 43.2744 -0.00753178 47.1036 0.00524935L57.8971 0ZM52.5003 26.2487C45.5388 26.2487 38.8623 29.0141 33.9397 33.9367C29.0172 38.8593 26.2517 45.5357 26.2517 52.4973C26.2517 59.4589 29.0172 66.1353 33.9397 71.0579C38.8623 75.9805 45.5388 78.746 52.5003 78.746C59.4619 78.746 66.1384 75.9805 71.0609 71.0579C75.9835 66.1353 78.749 59.4589 78.749 52.4973C78.749 45.5357 75.9835 38.8593 71.0609 33.9367C66.1384 29.0141 59.4619 26.2487 52.5003 26.2487ZM52.5003 36.7481C54.5686 36.7478 56.6166 37.1548 58.5275 37.9459C60.4384 38.7371 62.1748 39.8969 63.6375 41.3591C65.1002 42.8213 66.2605 44.5573 67.0523 46.4679C67.8441 48.3786 68.2518 50.4265 68.2522 52.4947C68.2525 54.5629 67.8455 56.6109 67.0543 58.5218C66.2632 60.4328 65.1034 62.1691 63.6412 63.6318C62.179 65.0945 60.443 66.2549 58.5323 67.0467C56.6217 67.8384 54.5738 68.2462 52.5056 68.2465C48.3286 68.2465 44.3228 66.5872 41.3692 63.6337C38.4157 60.6801 36.7564 56.6743 36.7564 52.4973C36.7564 48.3204 38.4157 44.3145 41.3692 41.3609C44.3228 38.4074 48.3286 36.7481 52.5056 36.7481M80.0667 18.3741C78.3263 18.3741 76.6572 19.0654 75.4265 20.2961C74.1959 21.5267 73.5045 23.1958 73.5045 24.9362C73.5045 26.6766 74.1959 28.3457 75.4265 29.5764C76.6572 30.807 78.3263 31.4984 80.0667 31.4984C81.8071 31.4984 83.4762 30.807 84.7068 29.5764C85.9375 28.3457 86.6288 26.6766 86.6288 24.9362C86.6288 23.1958 85.9375 21.5267 84.7068 20.2961C83.4762 19.0654 81.8071 18.3741 80.0667 18.3741Z" fill="url(#paint0_linear_253_145)"/>
<defs>
<linearGradient id="paint0_linear_253_145" x1="52.5" y1="0" x2="52.5" y2="104.997" gradientUnits="userSpaceOnUse">
<stop stop-color="#B84CFF"/>
<stop offset="1" stop-color="#73C0FE"/>
</linearGradient>
</defs>
</svg>
