<svg width="775" height="735" viewBox="0 0 775 735" fill="none" xmlns="http://www.w3.org/2000/svg">
<path d="M318.425 109.299C322.5 57.9666 416.656 76.9113 440.023 80.8599C518.353 94.0962 580.307 132.72 645.591 185.637C696.423 226.84 750.092 305.818 758.277 383.715C769.727 492.688 723.002 565.521 651.136 618.965C555.784 689.875 450.052 720 339.813 720C244.362 720 143.428 695.927 71.2678 612.479C1.309 531.577 -1.98857 419.532 53.444 323.843C101.89 240.214 165.839 173.933 238.02 124.766C334.472 59.067 450.672 39.1687 557.264 15" stroke="url(#paint0_linear_3_53)" stroke-width="30" stroke-linecap="round"/>
<defs>
<linearGradient id="paint0_linear_3_53" x1="387.5" y1="15" x2="387.5" y2="720" gradientUnits="userSpaceOnUse">
<stop offset="0.09375" stop-color="#73C0FE"/>
<stop offset="1" stop-color="#B84CFF"/>
</linearGradient>
</defs>
</svg>
