<svg width="105" height="121" viewBox="0 0 105 121" fill="none" xmlns="http://www.w3.org/2000/svg">
<path d="M83.3036 18.8839C78.7261 13.6582 76.2034 6.94709 76.2054 0H55.5134V83.0357C55.3538 87.5292 53.4567 91.7854 50.2216 94.9081C46.9866 98.0307 42.6659 99.7761 38.1696 99.7768C28.6607 99.7768 20.7589 92.0089 20.7589 82.3661C20.7589 70.8482 31.875 62.2098 43.3259 65.7589V44.5982C20.2232 41.5179 0 59.4643 0 82.3661C0 104.665 18.4821 120.536 38.1027 120.536C59.1295 120.536 76.2054 103.46 76.2054 82.3661V40.2455C84.596 46.2713 94.6698 49.5043 105 49.4866V28.7946C105 28.7946 92.4107 29.3973 83.3036 18.8839Z" fill="url(#paint0_linear_253_149)"/>
<defs>
<linearGradient id="paint0_linear_253_149" x1="52.5" y1="0" x2="52.5" y2="120.536" gradientUnits="userSpaceOnUse">
<stop stop-color="#B84CFF"/>
<stop offset="1" stop-color="#73C0FE"/>
</linearGradient>
</defs>
</svg>
