<svg width="105" height="84" viewBox="0 0 105 84" fill="none" xmlns="http://www.w3.org/2000/svg">
<path fill-rule="evenodd" clip-rule="evenodd" d="M52.5 0C56.9888 0 61.593 0.1155 66.0555 0.3045L71.3265 0.5565L76.3718 0.855751L81.0968 1.176L85.4122 1.512C90.0955 1.87046 94.5023 3.86897 97.8575 7.15596C101.213 10.4429 103.301 14.8078 103.756 19.4827L103.966 21.714L104.36 26.4915C104.727 31.4422 105 36.8392 105 42C105 47.1608 104.727 52.5578 104.36 57.5085L103.966 62.286C103.897 63.0525 103.829 63.7927 103.756 64.5173C103.301 69.193 101.212 73.5585 97.8555 76.8456C94.4993 80.1327 90.0912 82.1307 85.407 82.488L81.102 82.8187L76.377 83.1442L71.3265 83.4435L66.0555 83.6955C61.5396 83.8917 57.0201 83.9933 52.5 84C47.9799 83.9933 43.4604 83.8917 38.9445 83.6955L33.6735 83.4435L28.6283 83.1442L23.9032 82.8187L19.5877 82.488C14.9045 82.1295 10.4976 80.131 7.14248 76.844C3.78732 73.5571 1.69877 69.1922 1.24425 64.5173L1.03425 62.286L0.6405 57.5085C0.239072 52.3485 0.0254311 47.1756 0 42C0 36.8392 0.273 31.4422 0.6405 26.4915L1.03425 21.714C1.1025 20.9475 1.17075 20.2073 1.24425 19.4827C1.69859 14.8087 3.78639 10.4444 7.14048 7.15755C10.4946 3.87067 14.9002 1.87164 19.5825 1.512L23.8927 1.176L28.6178 0.855751L33.6683 0.5565L38.9392 0.3045C43.4569 0.108323 47.9781 0.00680025 52.5 0ZM42 29.2687V54.7313C42 57.1567 44.625 58.6687 46.725 57.4613L68.775 44.73C69.2548 44.4538 69.6534 44.056 69.9305 43.5768C70.2076 43.0975 70.3535 42.5536 70.3535 42C70.3535 41.4464 70.2076 40.9025 69.9305 40.4232C69.6534 39.944 69.2548 39.5462 68.775 39.27L46.725 26.544C46.246 26.2674 45.7026 26.1219 45.1495 26.122C44.5964 26.1221 44.053 26.2678 43.5741 26.5445C43.0952 26.8212 42.6976 27.2192 42.4213 27.6983C42.1449 28.1774 41.9996 28.7209 42 29.274" fill="url(#paint0_linear_3_27)"/>
<defs>
<linearGradient id="paint0_linear_3_27" x1="52.5" y1="0" x2="52.5" y2="84" gradientUnits="userSpaceOnUse">
<stop stop-color="#B84CFF"/>
<stop offset="1" stop-color="#73C0FE"/>
</linearGradient>
</defs>
</svg>
